<svg version="1.1" id="Layer_1" xmlns="http://www.w3.org/2000/svg" xmlns:xlink="http://www.w3.org/1999/xlink" x="0px" y="0px"
	 width="100%" viewBox="0 0 500 500" enable-background="new 0 0 500 500" xml:space="preserve">
<path fill="#F6F4F0" opacity="1.000000" stroke="none" 
	d="
M331.000000,501.000000 
	C220.666687,501.000000 110.833389,501.000000 1.000059,501.000000 
	C1.000039,334.333405 1.000039,167.666794 1.000020,1.000148 
	C167.666565,1.000099 334.333130,1.000099 500.999756,1.000049 
	C500.999847,167.666519 500.999847,334.333038 500.999939,500.999786 
	C444.500000,501.000000 388.000000,501.000000 331.000000,501.000000 
M245.463409,217.886551 
	C233.300430,217.886551 221.133377,217.705673 208.976624,217.980820 
	C204.485977,218.082443 202.992737,216.905396 203.019012,212.175507 
	C203.216080,176.686035 203.126633,141.194946 203.126862,105.704369 
	C203.126877,103.759590 203.126862,101.814812 203.126862,99.659790 
	C179.454086,99.659790 156.414597,99.659790 133.441177,99.659790 
	C133.441177,197.270645 133.441177,294.477051 133.441177,391.676086 
	C156.772064,391.676086 179.690201,391.676086 203.126465,391.676086 
	C203.126465,389.398865 203.126450,387.440948 203.126465,385.483032 
	C203.126633,350.825562 203.182343,316.167908 203.051392,281.510925 
	C203.036301,277.516296 203.971985,275.922729 208.291290,276.021057 
	C220.115372,276.290192 231.950211,276.180023 243.779297,276.064575 
	C246.568222,276.037354 248.217590,276.676422 249.546890,279.472168 
	C261.913116,305.480316 274.439117,331.412750 286.983704,357.335724 
	C295.745270,375.441101 309.666260,387.278351 329.755829,390.479797 
	C338.567230,391.883942 347.651550,391.742401 356.620087,391.948395 
	C366.565979,392.176849 376.521179,392.000671 386.661926,392.000671 
	C386.661926,372.416626 386.661926,353.392303 386.661926,333.997040 
	C378.131622,333.997040 369.989624,334.039490 361.848328,333.982941 
	C355.846680,333.941254 351.489471,331.556915 348.819519,325.772308 
	C341.565033,310.054962 333.991913,294.484863 326.566956,278.846008 
	C323.663879,272.731323 320.819061,266.589020 317.856628,260.264923 
	C319.946655,258.770996 321.711334,257.547211 323.436981,256.270599 
	C350.196625,236.473907 365.654053,210.543854 366.013977,176.703232 
	C366.272644,152.379059 366.089874,128.050110 366.082397,103.723305 
	C366.082001,102.435570 365.879822,101.147903 365.753754,99.648010 
	C342.447693,99.648010 319.406250,99.648010 296.000671,99.648010 
	C296.000671,101.853943 296.001343,103.669083 296.000610,105.484222 
	C295.990875,128.977890 296.142883,152.473083 295.919495,175.964722 
	C295.742859,194.539246 285.795502,209.283813 269.025177,214.630737 
	C261.879791,216.908936 253.996078,216.871490 245.463409,217.886551 
z"/>
<path fill="#FFBD59" opacity="1.000000" stroke="none" 
	d="
M245.955643,217.886444 
	C253.996078,216.871490 261.879791,216.908936 269.025177,214.630737 
	C285.795502,209.283813 295.742859,194.539246 295.919495,175.964722 
	C296.142883,152.473083 295.990875,128.977890 296.000610,105.484222 
	C296.001343,103.669083 296.000671,101.853943 296.000671,99.648010 
	C319.406250,99.648010 342.447693,99.648010 365.753754,99.648010 
	C365.879822,101.147903 366.082001,102.435570 366.082397,103.723305 
	C366.089874,128.050110 366.272644,152.379059 366.013977,176.703232 
	C365.654053,210.543854 350.196625,236.473907 323.436981,256.270599 
	C321.711334,257.547211 319.946655,258.770996 317.856628,260.264923 
	C320.819061,266.589020 323.663879,272.731323 326.566956,278.846008 
	C333.991913,294.484863 341.565033,310.054962 348.819519,325.772308 
	C351.489471,331.556915 355.846680,333.941254 361.848328,333.982941 
	C369.989624,334.039490 378.131622,333.997040 386.661926,333.997040 
	C386.661926,353.392303 386.661926,372.416626 386.661926,392.000671 
	C376.521179,392.000671 366.565979,392.176849 356.620087,391.948395 
	C347.651550,391.742401 338.567230,391.883942 329.755829,390.479797 
	C309.666260,387.278351 295.745270,375.441101 286.983704,357.335724 
	C274.439117,331.412750 261.913116,305.480316 249.546890,279.472168 
	C248.217590,276.676422 246.568222,276.037354 243.779297,276.064575 
	C231.950211,276.180023 220.115372,276.290192 208.291290,276.021057 
	C203.971985,275.922729 203.036301,277.516296 203.051392,281.510925 
	C203.182343,316.167908 203.126633,350.825562 203.126465,385.483032 
	C203.126450,387.440948 203.126465,389.398865 203.126465,391.676086 
	C179.690201,391.676086 156.772064,391.676086 133.441177,391.676086 
	C133.441177,294.477051 133.441177,197.270645 133.441177,99.659790 
	C156.414597,99.659790 179.454086,99.659790 203.126862,99.659790 
	C203.126862,101.814812 203.126877,103.759590 203.126862,105.704369 
	C203.126633,141.194946 203.216080,176.686035 203.019012,212.175507 
	C202.992737,216.905396 204.485977,218.082443 208.976624,217.980820 
	C221.133377,217.705673 233.300430,217.886551 245.955643,217.886444 
z"/>
</svg>